<?xml version="1.0" encoding="UTF-8"?>
<svg version="1.1" xmlns="http://www.w3.org/2000/svg" width="96" height="96">
<path d="M0 0 C31.68 0 63.36 0 96 0 C96 31.68 96 63.36 96 96 C64.32 96 32.64 96 0 96 C0 64.32 0 32.64 0 0 Z " fill="#209CEE" transform="translate(0,0)"/>
<path d="M0 0 C0.80060349 0.00007553 1.60120697 0.00015106 2.42607117 0.00022888 C3.71527214 0.00797081 3.71527214 0.00797081 5.03051758 0.01586914 C5.91411453 0.01728409 6.79771149 0.01869904 7.70808411 0.02015686 C10.53044011 0.0257547 13.3527168 0.03830678 16.17504883 0.05102539 C18.08845914 0.05604067 20.0018707 0.06060353 21.9152832 0.06469727 C26.60606897 0.07572342 31.29679545 0.09298656 35.98754883 0.11352539 C35.48956512 3.84840316 35.11263126 5.92590174 32.98754883 9.11352539 C30.64916992 9.54589844 30.64916992 9.54589844 27.76098633 9.62524414 C26.72973633 9.66069336 25.69848633 9.69614258 24.63598633 9.73266602 C23.55575195 9.75522461 22.47551758 9.7777832 21.36254883 9.80102539 C19.7305957 9.85226563 19.7305957 9.85226563 18.06567383 9.90454102 C15.3730682 9.98720873 12.68079592 10.05629626 9.98754883 10.11352539 C9.78258789 11.02875977 9.57762695 11.94399414 9.36645508 12.88696289 C9.09704102 14.07547852 8.82762695 15.26399414 8.55004883 16.48852539 C8.28321289 17.67188477 8.01637695 18.85524414 7.74145508 20.07446289 C6.98754883 23.11352539 6.98754883 23.11352539 5.98754883 25.11352539 C11.26754883 25.11352539 16.54754883 25.11352539 21.98754883 25.11352539 C20.98754883 32.11352539 20.98754883 32.11352539 19.98754883 33.11352539 C17.12487316 33.18677707 14.28682983 33.20590744 11.42504883 33.17602539 C10.61874023 33.17151367 9.81243164 33.16700195 8.98168945 33.16235352 C6.98361127 33.15053057 4.985571 33.13259453 2.98754883 33.11352539 C2.85219727 34.22985352 2.7168457 35.34618164 2.57739258 36.49633789 C1.97033291 41.33787878 1.28044455 46.16416801 0.55004883 50.98852539 C0.42823242 51.84188477 0.30641602 52.69524414 0.1809082 53.57446289 C0.05651367 54.38915039 -0.06788086 55.20383789 -0.19604492 56.04321289 C-0.35931274 57.14511963 -0.35931274 57.14511963 -0.52587891 58.26928711 C-1.01245117 60.11352539 -1.01245117 60.11352539 -3.01245117 62.11352539 C-5.14135742 62.34399414 -5.14135742 62.34399414 -7.57495117 62.30102539 C-8.38061523 62.29458008 -9.1862793 62.28813477 -10.01635742 62.28149414 C-12.01245117 62.11352539 -12.01245117 62.11352539 -13.01245117 61.11352539 C-13.55591326 52.25382956 -12.7919393 43.78853002 -11.01245117 35.11352539 C-13.32245117 35.11352539 -15.63245117 35.11352539 -18.01245117 35.11352539 C-17.68584494 32.06520059 -17.00722923 31.1084485 -14.76245117 28.92602539 C-12.03859661 27.13075761 -10.21793769 26.47986671 -7.01245117 26.11352539 C-6.90288086 25.55665039 -6.79331055 24.99977539 -6.68041992 24.42602539 C-5.56969869 19.08011508 -4.04019591 14.18288723 -2.01245117 9.11352539 C-6.65966854 10.3837648 -10.73491048 11.55432255 -14.38745117 14.80102539 C-17.01245117 17.11352539 -17.01245117 17.11352539 -20.01245117 17.11352539 C-20.42040128 12.95243431 -20.55479233 10.84229633 -18.01245117 7.42602539 C-12.73949676 3.36145637 -6.79239294 -0.02142711 0 0 Z " fill="#F9FCFE" transform="translate(40.012451171875,16.886474609375)"/>
</svg>
